<svg xmlns="http://www.w3.org/2000/svg" viewBox="0 0 512 512">
  <!-- Round ink background keeps the mark visible on both light and dark browser chrome -->
  <circle cx="256" cy="256" r="256" fill="#0a0a0a"/>
  <g fill="#ffffff" transform="translate(256 256) scale(1.06) translate(-256 -214)">
    <path d="M 159.25,219.52 C 149.80,240.98 140.46,262.10 131.12,283.23 C 119.40,283.23 107.97,283.23 96.00,283.23 C 113.81,243.82 131.47,204.77 149.38,165.16 C 150.13,166.45 150.74,167.31 151.17,168.26 C 155.82,178.57 160.39,188.92 165.10,199.20 C 166.20,201.60 166.49,203.66 165.23,206.15 C 163.08,210.39 161.30,214.82 159.25,219.52 z"/>
    <path d="M 232.05,214.32 C 220.99,190.00 209.93,165.69 199.00,141.66 C 187.46,141.66 176.53,141.66 165.10,141.66 C 186.10,189.14 206.93,236.21 227.65,283.04 C 239.78,283.04 251.31,283.04 263.31,283.04 C 252.85,260.05 242.60,237.52 232.05,214.32 z"/>
    <path d="M 310.10,180.06 C 310.10,193.37 310.08,206.19 310.10,219.01 C 310.10,224.61 310.47,230.16 312.20,235.55 C 315.39,245.45 321.73,252.24 331.71,255.44 C 339.68,257.99 347.77,258.44 355.98,256.71 C 370.25,253.69 379.97,242.86 381.31,228.33 C 381.61,225.07 381.73,221.78 381.73,218.50 C 381.76,194.34 381.73,170.18 381.72,146.02 C 381.72,144.72 381.72,143.43 381.72,141.41 C 393.07,141.41 404.16,141.38 415.65,141.44 C 415.76,142.75 415.96,143.99 415.96,145.23 C 415.98,171.20 416.00,197.17 415.96,223.14 C 415.95,233.25 414.17,243.02 409.98,252.31 C 404.60,264.22 395.85,272.67 384.09,278.17 C 367.32,286.01 349.73,287.21 331.63,284.97 C 320.37,283.58 309.91,280.04 300.28,274.06 C 287.79,266.30 281.10,254.50 277.88,240.61 C 276.59,235.06 275.90,229.25 275.85,223.55 C 275.65,197.09 275.77,170.63 275.78,144.17 C 275.78,143.38 275.88,142.60 275.94,141.62 C 287.33,141.62 298.43,141.62 310.10,141.62 C 310.10,154.35 310.10,166.96 310.10,180.06 z"/>
  </g>
</svg>
