<svg version="1.1" id="Layer_1" xmlns="http://www.w3.org/2000/svg" xmlns:xlink="http://www.w3.org/1999/xlink" x="0px" y="0px"
	 width="100%" viewBox="360 599 2071 344" enable-background="new 360 599 2071 344" xml:space="preserve">
<path fill="#0A0A0A" opacity="1.000000" stroke="none"
	d="
M1218.049316,920.617859
	C1190.185181,921.299683 1163.953613,917.347351 1138.824951,907.712646
	C1118.448730,899.900208 1099.467773,889.612915 1085.997314,871.544128
	C1074.594727,856.249268 1067.819092,839.307251 1067.382812,819.361084
	C1090.834106,819.361084 1113.676270,819.361084 1137.228149,819.361084
	C1137.518677,820.440979 1137.992065,821.912598 1138.307129,823.417419
	C1140.838013,835.507690 1147.605347,844.536743 1157.977051,851.080261
	C1168.005981,857.407532 1179.084473,860.711731 1190.608765,862.869141
	C1213.184937,867.095581 1235.657471,866.729187 1257.602661,859.834534
	C1264.369629,857.708496 1271.233521,853.999329 1276.468506,849.263611
	C1289.190552,837.754822 1287.500488,820.183899 1272.880981,811.183411
	C1266.206787,807.074402 1258.468506,803.931519 1250.800415,802.348145
	C1230.943115,798.247803 1210.885864,795.075745 1190.854248,791.871582
	C1168.185059,788.245361 1145.381104,785.198120 1124.094971,775.947754
	C1102.251831,766.455261 1085.485229,751.721313 1080.329224,727.557739
	C1073.567505,695.869202 1083.672241,669.691406 1109.449951,650.071350
	C1125.918213,637.537048 1145.171753,630.992004 1165.233032,626.941223
	C1204.821533,618.947510 1244.025024,619.655212 1282.183105,634.134216
	C1305.087646,642.825378 1325.027588,655.614502 1336.842651,678.267029
	C1342.721069,689.537781 1345.737671,701.094788 1345.690796,713.334900
	C1322.876587,713.334900 1300.041382,713.334900 1276.731201,713.334900
	C1270.513184,691.760315 1253.427002,682.469604 1233.034790,678.052429
	C1212.512695,673.607178 1191.944702,674.235229 1172.158569,681.981201
	C1166.375000,684.245483 1160.660156,687.498474 1155.940918,691.507385
	C1144.352661,701.351440 1145.922363,716.256714 1159.157593,723.668579
	C1172.133423,730.935181 1186.638672,733.546448 1201.091187,735.969666
	C1225.678467,740.092163 1250.352173,743.718201 1274.890259,748.107971
	C1289.678833,750.753662 1303.684570,756.050232 1317.135986,762.867615
	C1341.749268,775.342041 1354.210449,795.747192 1355.465576,822.774597
	C1356.992676,855.655212 1342.684204,880.753967 1314.888428,897.753540
	C1288.649048,913.801270 1259.190430,918.866211 1228.993896,920.580566
	C1225.672607,920.769104 1222.331909,920.612732 1218.049316,920.617859
z"/>
<path fill="#0A0A0A" opacity="1.000000" stroke="none"
	d="
M813.606201,706.000244
	C813.596008,732.989929 813.553040,758.979736 813.589417,784.969360
	C813.605347,796.314514 814.345398,807.569397 817.864136,818.497192
	C824.325928,838.564758 837.163452,852.326843 857.409241,858.813171
	C873.568726,863.990479 889.968872,864.899597 906.599121,861.384399
	C935.523132,855.270691 955.230469,833.306091 957.944519,803.865845
	C958.554382,797.250488 958.805298,790.580139 958.811646,783.934631
	C958.858704,734.954224 958.801758,685.973694 958.777710,636.993164
	C958.776428,634.368958 958.777527,631.744751 958.777527,627.654297
	C981.799683,627.651306 1004.265625,627.583801 1027.558472,627.712097
	C1027.789185,630.367615 1028.196167,632.878540 1028.197876,635.389709
	C1028.234009,688.035522 1028.272583,740.681396 1028.199829,793.327087
	C1028.171387,813.838623 1024.561523,833.639526 1016.062378,852.469666
	C1005.168030,876.606689 987.420166,893.746704 963.578064,904.896362
	C929.586243,920.792542 893.924011,923.224548 857.250671,918.680298
	C834.423401,915.851624 813.208557,908.684814 793.699463,896.566772
	C768.367798,880.831909 754.815796,856.906616 748.282349,828.751343
	C745.671448,817.499878 744.260254,805.725464 744.172058,794.174866
	C743.762573,740.532593 744.005798,686.885437 744.032471,633.239990
	C744.033264,631.654541 744.222961,630.069275 744.350647,628.077148
	C767.433655,628.077148 789.944458,628.077148 813.605652,628.077148
	C813.605652,653.895691 813.605652,679.447937 813.606201,706.000244
z"/>
<path fill="#0A0A0A" opacity="1.000000" stroke="none"
	d="
M1543.536377,782.000366
	C1543.537109,826.636597 1543.537109,870.272827 1543.537109,914.675293
	C1520.665161,914.675293 1498.204590,914.675293 1474.608276,914.675293
	C1474.608276,837.700684 1474.608276,760.585632 1474.608276,682.731934
	C1441.961914,682.731934 1410.436768,682.731934 1378.291260,682.731934
	C1378.291260,664.228760 1378.291260,646.459045 1378.291260,628.161743
	C1465.523315,628.161743 1552.687256,628.161743 1640.445801,628.161743
	C1640.445801,646.062317 1640.445801,663.856567 1640.445801,682.451294
	C1608.240601,682.451294 1576.377441,682.451294 1543.535645,682.451294
	C1543.535645,715.824829 1543.535645,748.412598 1543.536377,782.000366
z"/>
<path fill="#0A0A0A" opacity="1.000000" stroke="none"
	d="
M2236.250488,702.000122
	C2236.250732,754.881653 2236.250732,806.763184 2236.250732,859.549072
	C2294.843994,859.549072 2352.627197,859.549072 2411.024414,859.549072
	C2411.024414,878.273621 2411.024414,896.106445 2411.024414,914.690186
	C2329.765137,914.690186 2248.399658,914.690186 2166.455811,914.690186
	C2166.455811,819.213318 2166.455811,723.849548 2166.455811,628.057007
	C2189.598389,628.057007 2212.409424,628.057007 2236.250244,628.057007
	C2236.250244,652.592590 2236.250244,676.796326 2236.250488,702.000122
z"/>
<path fill="#0A0A0A" opacity="1.000000" stroke="none"
	d="
M1681.458740,887.907837
	C1681.458130,800.767273 1681.458130,714.554810 1681.458130,628.009277
	C1705.070312,628.009277 1727.953247,628.009277 1751.358154,628.009277
	C1751.358154,723.744019 1751.358154,819.120789 1751.358154,914.962891
	C1728.000854,914.962891 1705.190674,914.962891 1681.459473,914.962891
	C1681.459473,906.023987 1681.459473,897.429993 1681.458740,887.907837
z"/>
<path fill="#0A0A0A" opacity="1.000000" stroke="none"
	d="
M655.690247,776.146118
	C676.766296,822.494324 697.536438,868.149902 718.740784,914.760071
	C694.413452,914.760071 671.047607,914.760071 646.452942,914.760071
	C604.451477,819.829834 562.236084,724.415955 519.648315,628.160400
	C542.829102,628.160400 564.988892,628.160400 588.368774,628.160400
	C610.528564,676.865295 632.956421,726.159424 655.690247,776.146118
z"/>
<path fill="#0A0A0A" opacity="1.000000" stroke="none"
	d="
M2052.681152,749.073853
	C2077.993652,804.459106 2102.955811,859.172607 2128.331787,914.792969
	C2103.965088,914.792969 2080.562256,914.792969 2056.211670,914.792969
	C2014.285278,819.868286 1972.137207,724.441528 1929.620483,628.179993
	C1952.671143,628.179993 1974.809204,628.179993 1998.006836,628.179993
	C2015.961548,667.914795 2034.146240,708.158447 2052.681152,749.073853
z"/>
<path fill="#0A0A0A" opacity="1.000000" stroke="none"
	d="
M507.802612,785.991455
	C488.637848,829.510315 469.715271,872.308716 450.777100,915.142334
	C427.006073,915.142334 403.848022,915.142334 379.577637,915.142334
	C415.690674,835.266846 451.481049,756.105042 487.792389,675.791016
	C489.318665,678.414246 490.553284,680.162048 491.416565,682.077271
	C500.840698,702.984436 510.104370,723.964844 519.664734,744.809204
	C521.895569,749.673035 522.472778,753.853271 519.910522,758.903748
	C515.554749,767.489624 511.959564,776.461365 507.802612,785.991455
z"/>
<path fill="#0A0A0A" opacity="1.000000" stroke="none"
	d="
M1795.941895,899.796509
	C1829.709717,824.904663 1863.201782,750.728882 1897.063721,675.733643
	C1898.476807,678.056213 1899.788452,679.770447 1900.645386,681.687744
	C1910.133179,702.915039 1919.480103,724.205627 1929.047607,745.396729
	C1930.910400,749.522827 1931.614258,753.093079 1929.635010,757.561157
	C1907.169312,808.276611 1884.903687,859.080627 1862.560913,909.850586
	C1861.773682,911.639771 1860.739136,913.320190 1859.758179,915.167358
	C1836.596069,915.167358 1813.691040,915.167358 1790.418213,915.167358
	C1790.016846,909.452332 1794.062988,905.390564 1795.941895,899.796509
z"/>
</svg>
